<?xml version="1.0" standalone="no"?>
<!DOCTYPE svg PUBLIC "-//W3C//DTD SVG 20010904//EN"
 "http://www.w3.org/TR/2001/REC-SVG-20010904/DTD/svg10.dtd">
<svg version="1.0" xmlns="http://www.w3.org/2000/svg"
 width="1000.000000pt" height="1000.000000pt" viewBox="0 0 1000.000000 1000.000000"
 preserveAspectRatio="xMidYMid meet">
<metadata>
Created by potrace 1.11, written by Peter Selinger 2001-2013
</metadata>
<g transform="translate(0.000000,1000.000000) scale(0.100000,-0.100000)"
fill="#000000" stroke="none">
<path d="M565 9009 c-125 -23 -217 -86 -280 -189 -71 -118 -65 207 -63 -3539
l3 -3376 24 -58 c43 -109 130 -194 244 -240 52 -21 56 -21 1837 -23 982 -2
1788 -3 1793 -3 4 -1 7 -89 7 -196 l0 -195 -512 0 c-475 0 -516 -2 -553 -19
-51 -23 -101 -80 -115 -131 -13 -48 -12 -490 2 -538 11 -39 88 -119 126 -129
15 -5 850 -8 1857 -8 l1830 0 42 23 c24 12 51 35 60 50 10 15 21 29 25 32 19
14 26 109 24 332 -1 222 -3 246 -21 273 -33 52 -81 93 -121 104 -25 7 -206 11
-516 11 l-478 0 0 63 c-2 224 -1 319 4 324 3 3 814 6 1803 5 1955 0 1869 -3
1975 55 103 56 190 186 205 308 5 33 8 396 8 808 -1 513 2 747 10 747 7 0 6 3
-1 8 -7 5 -10 751 -10 2561 1 1932 -2 2569 -11 2613 -34 167 -176 303 -343
328 -68 10 -8800 9 -8855 -1z"/>
</g>
</svg>
